<?xml version="1.0" encoding="UTF-8"?>
<!DOCTYPE svg PUBLIC "-//W3C//DTD SVG 1.1//EN" "http://www.w3.org/Graphics/SVG/1.1/DTD/svg11.dtd">
<!-- Creator: CorelDRAW (Versión de evaluación) -->
<svg xmlns="http://www.w3.org/2000/svg" xml:space="preserve" width="4.2332mm" height="4.2332mm" version="1.1" style="shape-rendering:geometricPrecision; text-rendering:geometricPrecision; image-rendering:optimizeQuality; fill-rule:evenodd; clip-rule:evenodd"
viewBox="0 0 423.32 423.32"
 xmlns:xlink="http://www.w3.org/1999/xlink"
 xmlns:xodm="http://www.corel.com/coreldraw/odm/2003">
 <defs>
  <style type="text/css">
   <![CDATA[
    .fil0 {fill:#EBA53B}
   ]]>
  </style>
 </defs>
 <g id="Capa_x0020_1">
  <metadata id="CorelCorpID_0Corel-Layer"/>
  <g id="_1751362111776">
   <path class="fil0" d="M297.38 177.02l103.42 -60.36c-34.67,-68.92 -105.89,-116.32 -188.26,-116.67l84.84 177.03z"/>
   <path class="fil0" d="M194.58 116.59c-8.34,17.34 -16.24,33.69 -24.11,50.1l-54.43 113.3 146.16 -82.97 -60.98 -94.13 -6.64 13.7z"/>
   <path class="fil0" d="M311.45 206.4l65.72 137.14c28.87,-36.16 46.15,-81.99 46.15,-131.87 0,-27.85 -5.42,-54.39 -15.18,-78.73l-96.69 73.46z"/>
   <path class="fil0" d="M75.88 374.03c36.77,30.75 84.09,49.29 135.79,49.29 60.71,0 115.39,-25.58 153.99,-66.51l-83.75 -129.37 -206.03 146.59z"/>
   <path class="fil0" d="M-0.01 211.66c0,41.07 11.72,79.35 31.97,111.81l156.14 -322.14c-105.82,11.72 -188.11,101.38 -188.11,210.33z"/>
  </g>
 </g>
</svg>
